<?xml version="1.0" encoding="UTF-8" standalone="no"?>
<svg viewBox="0 0 50 50"
 xmlns="http://www.w3.org/2000/svg" xmlns:xlink="http://www.w3.org/1999/xlink"  version="1.2" baseProfile="tiny">
<title>Qt SVG Document</title>
<desc>Generated with Qt</desc>
<defs>
<radialGradient gradientUnits="userSpaceOnUse" cx="153.968" cy="384.95" r="7.59734" fx="153.968" fy="384.95" id="gradient1">
    <stop offset="0" stop-color="#f2eaea" stop-opacity="1" />
    <stop offset="0.5" stop-color="#e0cfcf" stop-opacity="1" />
    <stop offset="1" stop-color="#5c4646" stop-opacity="1" />
</radialGradient>
</defs>
<g fill="none" stroke="black" stroke-width="1" fill-rule="evenodd" stroke-linecap="square" stroke-linejoin="bevel" >

<g fill="none" stroke="none" transform="matrix(2.77778,0,0,2.77778,-1827.78,-963.889)"
font-family="OnePlus Sans Display Medium" font-size="14" font-weight="570" font-style="normal" 
>
<rect x="658" y="347" width="18" height="18"/>
</g>

<g fill="url(#gradient1)" stroke="none" transform="matrix(2.70162,0,0,2.79986,-389.133,-1053.38)"
font-family="OnePlus Sans Display Medium" font-size="14" font-weight="570" font-style="normal" 
opacity="0.5" >
<path vector-effect="none" fill-rule="evenodd" d="M160.488,385.156 C160.488,388.992 157.266,392.101 153.291,392.101 C149.316,392.101 146.093,388.992 146.093,385.156 C146.093,381.321 149.316,378.212 153.291,378.212 C157.266,378.212 160.488,381.321 160.488,385.156 "/>
</g>

<g fill="none" stroke="#5f6873" stroke-opacity="1" stroke-width="1" stroke-linecap="butt" stroke-linejoin="miter" stroke-miterlimit="4" transform="matrix(2.70162,0,0,2.79986,-389.133,-1053.38)"
font-family="OnePlus Sans Display Medium" font-size="14" font-weight="570" font-style="normal" 
opacity="0.5" >
<path vector-effect="none" fill-rule="evenodd" d="M160.488,385.156 C160.488,388.992 157.266,392.101 153.291,392.101 C149.316,392.101 146.093,388.992 146.093,385.156 C146.093,381.321 149.316,378.212 153.291,378.212 C157.266,378.212 160.488,381.321 160.488,385.156 "/>
</g>

<g fill="#e1e6eb" fill-opacity="1" stroke="none" transform="matrix(2.77778,0,0,2.77778,-938.82,-463.871)"
font-family="OnePlus Sans Display Medium" font-size="14" font-weight="570" font-style="normal" 
opacity="0.52549" >
<path vector-effect="none" fill-rule="evenodd" d="M346.152,176.536 L343.459,179.298 L344.323,180.265 L347.016,177.365 L349.588,180.179 L350.572,179.229 L347.879,176.433 L350.434,174.016 L349.605,172.98 L347.016,175.569 L344.323,173.014 L343.459,174.016 L346.152,176.536"/>
</g>

<g fill="#25282b" fill-opacity="1" stroke="none" transform="matrix(2.77778,0,0,2.77778,-938.82,-463.871)"
font-family="OnePlus Sans Display Medium" font-size="14" font-weight="570" font-style="normal" 
opacity="0.345098" >
<path vector-effect="none" fill-rule="evenodd" d="M346.072,175.279 L343.378,178.041 L344.242,179.008 L346.935,176.107 L349.507,178.921 L350.491,177.972 L347.798,175.175 L350.353,172.758 L349.524,171.722 L346.935,174.312 L344.242,171.757 L343.378,172.758 L346.072,175.279"/>
</g>

<g fill="#1f1f1f" fill-opacity="1" stroke="none" transform="matrix(2.77778,0,0,2.77778,-938.82,-463.871)"
font-family="OnePlus Sans Display Medium" font-size="14" font-weight="570" font-style="normal" 
opacity="0.45098" >
<path vector-effect="none" fill-rule="evenodd" d="M346.117,175.891 L343.424,178.653 L344.287,179.62 L346.98,176.72 L349.552,179.534 L350.536,178.584 L347.843,175.787 L350.398,173.371 L349.57,172.335 L346.98,174.924 L344.287,172.369 L343.424,173.371 L346.117,175.891"/>
</g>

<g fill="none" stroke="#000000" stroke-opacity="1" stroke-width="1" stroke-linecap="square" stroke-linejoin="bevel" transform="matrix(1,0,0,1,0,0)"
font-family="OnePlus Sans Display Medium" font-size="14" font-weight="570" font-style="normal" 
>
</g>
</g>
</svg>
