<?xml version="1.0" encoding="UTF-8" standalone="no"?>
<svg viewBox="0 0 50 50"
 xmlns="http://www.w3.org/2000/svg" xmlns:xlink="http://www.w3.org/1999/xlink"  version="1.2" baseProfile="tiny">
<title>Qt SVG Document</title>
<desc>Generated with Qt</desc>
<defs>
</defs>
<g fill="none" stroke="black" stroke-width="1" fill-rule="evenodd" stroke-linecap="square" stroke-linejoin="bevel" >

<g fill="none" stroke="none" transform="matrix(2.77778,0,0,2.77778,-1772.22,-1019.44)"
font-family="OnePlus Sans Display Medium" font-size="14" font-weight="570" font-style="normal" 
>
<rect x="638" y="367" width="18" height="18"/>
</g>

<g fill="#363a3f" fill-opacity="1" stroke="none" transform="matrix(2.77778,0,0,2.77778,-1938.89,-1019.44)"
font-family="OnePlus Sans Display Medium" font-size="14" font-weight="570" font-style="normal" 
opacity="0.261682" >
<path vector-effect="none" fill-rule="evenodd" d="M706.566,368.123 C702.399,368.123 699.02,371.501 699.02,375.668 C699.02,379.835 702.399,383.214 706.566,383.214 C710.733,383.214 714.111,379.835 714.111,375.668 C714.111,371.501 710.733,368.123 706.566,368.123 M706.566,369.201 C710.138,369.201 713.033,372.096 713.033,375.668 C713.033,379.24 710.138,382.136 706.566,382.136 C702.994,382.136 700.098,379.24 700.098,375.668 C700.098,372.096 702.994,369.201 706.566,369.201 "/>
</g>

<g fill="#ffffff" fill-opacity="1" stroke="none" transform="matrix(2.77778,0,0,2.77778,-1938.89,-1019.44)"
font-family="OnePlus Sans Display Medium" font-size="14" font-weight="570" font-style="normal" 
opacity="0.5" >
<path vector-effect="none" fill-rule="evenodd" d="M707.307,368.897 C703.14,368.897 699.761,372.276 699.761,376.443 C699.761,380.61 703.14,383.988 707.307,383.988 C711.474,383.988 714.852,380.61 714.852,376.443 C714.852,372.276 711.474,368.897 707.307,368.897 M707.307,369.975 C710.879,369.975 713.774,372.871 713.774,376.443 C713.774,380.015 710.879,382.91 707.307,382.91 C703.735,382.91 700.839,380.015 700.839,376.443 C700.839,372.871 703.735,369.975 707.307,369.975 "/>
</g>

<g fill="none" stroke="#000000" stroke-opacity="1" stroke-width="1" stroke-linecap="square" stroke-linejoin="bevel" transform="matrix(1,0,0,1,0,0)"
font-family="OnePlus Sans Display Medium" font-size="14" font-weight="570" font-style="normal" 
>
</g>
</g>
</svg>
