<?xml version="1.0" encoding="UTF-8" standalone="no"?>
<svg viewBox="0 0 50 50"
 xmlns="http://www.w3.org/2000/svg" xmlns:xlink="http://www.w3.org/1999/xlink"  version="1.2" baseProfile="tiny">
<title>Qt SVG Document</title>
<desc>Generated with Qt</desc>
<defs>
<radialGradient gradientUnits="userSpaceOnUse" cx="153.968" cy="384.95" r="7.59734" fx="153.968" fy="384.95" id="gradient1">
    <stop offset="0" stop-color="#eaeef2" stop-opacity="1" />
    <stop offset="0.5" stop-color="#cfd8e0" stop-opacity="1" />
    <stop offset="1" stop-color="#46525c" stop-opacity="1" />
</radialGradient>
</defs>
<g fill="none" stroke="black" stroke-width="1" fill-rule="evenodd" stroke-linecap="square" stroke-linejoin="bevel" >

<g fill="none" stroke="none" transform="matrix(2.77778,0,0,2.77778,-1772.22,-963.889)"
font-family="OnePlus Sans Display Medium" font-size="14" font-weight="570" font-style="normal" 
>
<rect x="638" y="347" width="18" height="18"/>
</g>

<g fill="url(#gradient1)" stroke="none" transform="matrix(2.70162,0,0,2.79986,-389.132,-1053.38)"
font-family="OnePlus Sans Display Medium" font-size="14" font-weight="570" font-style="normal" 
opacity="0.5" >
<path vector-effect="none" fill-rule="evenodd" d="M160.488,385.156 C160.488,388.992 157.266,392.101 153.291,392.101 C149.316,392.101 146.093,388.992 146.093,385.156 C146.093,381.321 149.316,378.212 153.291,378.212 C157.266,378.212 160.488,381.321 160.488,385.156 "/>
</g>

<g fill="none" stroke="#5f6873" stroke-opacity="1" stroke-width="1" stroke-linecap="butt" stroke-linejoin="miter" stroke-miterlimit="4" transform="matrix(2.70162,0,0,2.79986,-389.132,-1053.38)"
font-family="OnePlus Sans Display Medium" font-size="14" font-weight="570" font-style="normal" 
opacity="0.5" >
<path vector-effect="none" fill-rule="evenodd" d="M160.488,385.156 C160.488,388.992 157.266,392.101 153.291,392.101 C149.316,392.101 146.093,388.992 146.093,385.156 C146.093,381.321 149.316,378.212 153.291,378.212 C157.266,378.212 160.488,381.321 160.488,385.156 "/>
</g>

<g fill="#e1e6eb" fill-opacity="1" stroke="none" transform="matrix(2.77778,0,0,2.77778,-970.431,-463.61)"
font-family="OnePlus Sans Display Medium" font-size="14" font-weight="570" font-style="normal" 
opacity="0.52549" >
<path vector-effect="none" fill-rule="evenodd" d="M354.817,177.804 L358.333,174.289 L361.946,177.707 L361.067,178.586 L358.333,175.949 L355.598,178.781 L354.817,177.804"/>
</g>

<g fill="#25282b" fill-opacity="1" stroke="none" transform="matrix(2.77778,0,0,2.77778,-970.431,-463.61)"
font-family="OnePlus Sans Display Medium" font-size="14" font-weight="570" font-style="normal" 
opacity="0.345098" >
<path vector-effect="none" fill-rule="evenodd" d="M354.812,176.534 L358.328,173.018 L361.941,176.436 L361.062,177.315 L358.328,174.678 L355.545,177.364 L354.812,176.534"/>
</g>

<g fill="#1f1f1f" fill-opacity="1" stroke="none" transform="matrix(2.77778,0,0,2.77778,-970.431,-463.61)"
font-family="OnePlus Sans Display Medium" font-size="14" font-weight="570" font-style="normal" 
opacity="0.45098" >
<path vector-effect="none" fill-rule="evenodd" d="M354.756,177.23 L358.341,173.714 L361.954,177.083 L361.075,178.011 L358.341,175.374 L355.538,178.137 L354.756,177.23"/>
</g>

<g fill="none" stroke="#000000" stroke-opacity="1" stroke-width="1" stroke-linecap="square" stroke-linejoin="bevel" transform="matrix(1,0,0,1,0,0)"
font-family="OnePlus Sans Display Medium" font-size="14" font-weight="570" font-style="normal" 
>
</g>
</g>
</svg>
