<?xml version="1.0" encoding="UTF-8" standalone="no"?>
<svg viewBox="0 0 50 50"
 xmlns="http://www.w3.org/2000/svg" xmlns:xlink="http://www.w3.org/1999/xlink"  version="1.2" baseProfile="tiny">
<title>Qt SVG Document</title>
<desc>Generated with Qt</desc>
<defs>
<radialGradient gradientUnits="userSpaceOnUse" cx="153.291" cy="385.156" r="7.19734" fx="153.291" fy="385.156" id="gradient1">
    <stop offset="0" stop-color="#6d9ec9" stop-opacity="1" />
    <stop offset="0.840909" stop-color="#6d9ec9" stop-opacity="1" />
    <stop offset="1" stop-color="#6d9ec9" stop-opacity="0" />
</radialGradient>
<radialGradient gradientUnits="userSpaceOnUse" cx="153.291" cy="380.878" r="7.59734" fx="153.291" fy="380.878" id="gradient2">
    <stop offset="0" stop-color="#ffffff" stop-opacity="1" />
    <stop offset="0.5" stop-color="#e4ecf4" stop-opacity="1" />
    <stop offset="1" stop-color="#b5cadf" stop-opacity="0.74902" />
</radialGradient>
</defs>
<g fill="none" stroke="black" stroke-width="1" fill-rule="evenodd" stroke-linecap="square" stroke-linejoin="bevel" >

<g fill="none" stroke="none" transform="matrix(2.77778,0,0,2.77778,-1772.22,-908.333)"
font-family="OnePlus Sans Display Medium" font-size="14" font-weight="570" font-style="normal" 
>
<rect x="638" y="327" width="18" height="18"/>
</g>

<g fill="url(#gradient1)" stroke="none" transform="matrix(2.77778,0,0,2.77778,-1938.89,-908.333)"
font-family="OnePlus Sans Display Medium" font-size="14" font-weight="570" font-style="normal" 
>
<path vector-effect="none" fill-rule="evenodd" d="M707,327.5 C702.306,327.5 698.5,331.306 698.5,336 C698.5,340.694 702.306,344.5 707,344.5 C711.694,344.5 715.5,340.694 715.5,336 C715.5,331.306 711.694,327.5 707,327.5 M707,329 C710.866,329 714,332.134 714,336 C714,339.866 710.866,343 707,343 C703.134,343 700,339.866 700,336 C700,332.134 703.134,329 707,329 "/>
</g>

<g fill="url(#gradient2)" stroke="none" transform="matrix(2.70162,0,0,2.79986,-389.133,-1053.38)"
font-family="OnePlus Sans Display Medium" font-size="14" font-weight="570" font-style="normal" 
opacity="0.75" >
<path vector-effect="none" fill-rule="evenodd" d="M160.488,385.156 C160.488,388.992 157.266,392.101 153.291,392.101 C149.316,392.101 146.093,388.992 146.093,385.156 C146.093,381.321 149.316,378.212 153.291,378.212 C157.266,378.212 160.488,381.321 160.488,385.156 "/>
</g>

<g fill="#e1e6eb" fill-opacity="1" stroke="none" transform="matrix(2.77778,0,0,2.77778,-1216.67,-519.444)"
font-family="OnePlus Sans Display Medium" font-size="14" font-weight="570" font-style="normal" 
opacity="0.52549" >
<path vector-effect="none" fill-rule="evenodd" d="M443.451,195.364 L446.967,198.879 L450.58,195.461 L449.701,194.582 L446.967,197.219 L444.232,194.387 L443.451,195.364"/>
</g>

<g fill="#25282b" fill-opacity="1" stroke="none" transform="matrix(2.77778,0,0,2.77778,-1216.67,-519.444)"
font-family="OnePlus Sans Display Medium" font-size="14" font-weight="570" font-style="normal" 
opacity="0.345098" >
<path vector-effect="none" fill-rule="evenodd" d="M443.481,193.951 L446.997,197.466 L450.61,194.048 L449.731,193.169 L446.997,195.806 L444.214,193.121 L443.481,193.951"/>
</g>

<g fill="#6d9ec9" fill-opacity="1" stroke="none" transform="matrix(2.77778,0,0,2.77778,-1216.67,-519.444)"
font-family="OnePlus Sans Display Medium" font-size="14" font-weight="570" font-style="normal" 
>
<path vector-effect="none" fill-rule="evenodd" d="M443.39,194.622 L446.975,198.138 L450.588,194.768 L449.709,193.841 L446.975,196.477 L444.171,193.714 L443.39,194.622"/>
</g>

<g fill="none" stroke="#000000" stroke-opacity="1" stroke-width="1" stroke-linecap="square" stroke-linejoin="bevel" transform="matrix(1,0,0,1,0,0)"
font-family="OnePlus Sans Display Medium" font-size="14" font-weight="570" font-style="normal" 
>
</g>
</g>
</svg>
